<mxfile host="Electron" modified="2024-01-10T17:51:12.131Z" agent="Mozilla/5.0 (Windows NT 10.0; Win64; x64) AppleWebKit/537.36 (KHTML, like Gecko) draw.io/22.1.16 Chrome/120.0.6099.109 Electron/28.1.0 Safari/537.36" etag="0tDms8tvkQJbVIbtMK5p" version="22.1.16" type="device">
  <diagram id="C5RBs43oDa-KdzZeNtuy" name="Page-1">
    <mxGraphModel dx="910" dy="465" grid="1" gridSize="10" guides="1" tooltips="1" connect="1" arrows="1" fold="1" page="1" pageScale="1" pageWidth="2336" pageHeight="1654" math="0" shadow="0">
      <root>
        <mxCell id="WIyWlLk6GJQsqaUBKTNV-0" />
        <mxCell id="WIyWlLk6GJQsqaUBKTNV-1" parent="WIyWlLk6GJQsqaUBKTNV-0" />
        <mxCell id="2Xf49_OqfoOK6BUDDD7R-32" value="Batiment" style="swimlane;fontStyle=1;align=center;verticalAlign=top;childLayout=stackLayout;horizontal=1;startSize=26;horizontalStack=0;resizeParent=1;resizeParentMax=0;resizeLast=0;collapsible=1;marginBottom=0;whiteSpace=wrap;html=1;labelBackgroundColor=none;rounded=1;" parent="WIyWlLk6GJQsqaUBKTNV-1" vertex="1">
          <mxGeometry x="610" y="190" width="140" height="294" as="geometry" />
        </mxCell>
        <mxCell id="2Xf49_OqfoOK6BUDDD7R-33" value="- CodeB" style="text;strokeColor=none;fillColor=none;align=left;verticalAlign=top;spacingLeft=4;spacingRight=4;overflow=hidden;rotatable=0;points=[[0,0.5],[1,0.5]];portConstraint=eastwest;whiteSpace=wrap;html=1;labelBackgroundColor=none;rounded=1;" parent="2Xf49_OqfoOK6BUDDD7R-32" vertex="1">
          <mxGeometry y="26" width="140" height="26" as="geometry" />
        </mxCell>
        <mxCell id="2Xf49_OqfoOK6BUDDD7R-38" value="- Libelle" style="text;strokeColor=none;fillColor=none;align=left;verticalAlign=top;spacingLeft=4;spacingRight=4;overflow=hidden;rotatable=0;points=[[0,0.5],[1,0.5]];portConstraint=eastwest;whiteSpace=wrap;html=1;labelBackgroundColor=none;rounded=1;" parent="2Xf49_OqfoOK6BUDDD7R-32" vertex="1">
          <mxGeometry y="52" width="140" height="26" as="geometry" />
        </mxCell>
        <mxCell id="2Xf49_OqfoOK6BUDDD7R-39" value="- Nb_Niveau" style="text;strokeColor=none;fillColor=none;align=left;verticalAlign=top;spacingLeft=4;spacingRight=4;overflow=hidden;rotatable=0;points=[[0,0.5],[1,0.5]];portConstraint=eastwest;whiteSpace=wrap;html=1;labelBackgroundColor=none;rounded=1;" parent="2Xf49_OqfoOK6BUDDD7R-32" vertex="1">
          <mxGeometry y="78" width="140" height="26" as="geometry" />
        </mxCell>
        <mxCell id="zw3aMHb7EDs_FbRtpkh9-0" value="- Nb_Chambre" style="text;strokeColor=none;fillColor=none;align=left;verticalAlign=top;spacingLeft=4;spacingRight=4;overflow=hidden;rotatable=0;points=[[0,0.5],[1,0.5]];portConstraint=eastwest;whiteSpace=wrap;html=1;labelBackgroundColor=none;rounded=1;" parent="2Xf49_OqfoOK6BUDDD7R-32" vertex="1">
          <mxGeometry y="104" width="140" height="26" as="geometry" />
        </mxCell>
        <mxCell id="zw3aMHb7EDs_FbRtpkh9-1" value="- Nbre_Lit_Chambre" style="text;strokeColor=none;fillColor=none;align=left;verticalAlign=top;spacingLeft=4;spacingRight=4;overflow=hidden;rotatable=0;points=[[0,0.5],[1,0.5]];portConstraint=eastwest;whiteSpace=wrap;html=1;labelBackgroundColor=none;rounded=1;" parent="2Xf49_OqfoOK6BUDDD7R-32" vertex="1">
          <mxGeometry y="130" width="140" height="26" as="geometry" />
        </mxCell>
        <mxCell id="zw3aMHb7EDs_FbRtpkh9-2" value="- Prix_chambre" style="text;strokeColor=none;fillColor=none;align=left;verticalAlign=top;spacingLeft=4;spacingRight=4;overflow=hidden;rotatable=0;points=[[0,0.5],[1,0.5]];portConstraint=eastwest;whiteSpace=wrap;html=1;labelBackgroundColor=none;rounded=1;" parent="2Xf49_OqfoOK6BUDDD7R-32" vertex="1">
          <mxGeometry y="156" width="140" height="26" as="geometry" />
        </mxCell>
        <mxCell id="2Xf49_OqfoOK6BUDDD7R-34" value="" style="line;strokeWidth=1;fillColor=none;align=left;verticalAlign=middle;spacingTop=-1;spacingLeft=3;spacingRight=3;rotatable=0;labelPosition=right;points=[];portConstraint=eastwest;labelBackgroundColor=none;rounded=1;" parent="2Xf49_OqfoOK6BUDDD7R-32" vertex="1">
          <mxGeometry y="182" width="140" height="8" as="geometry" />
        </mxCell>
        <mxCell id="2Xf49_OqfoOK6BUDDD7R-35" value="+ EnregistrerBatimet()" style="text;strokeColor=none;fillColor=none;align=left;verticalAlign=top;spacingLeft=4;spacingRight=4;overflow=hidden;rotatable=0;points=[[0,0.5],[1,0.5]];portConstraint=eastwest;whiteSpace=wrap;html=1;labelBackgroundColor=none;rounded=1;" parent="2Xf49_OqfoOK6BUDDD7R-32" vertex="1">
          <mxGeometry y="190" width="140" height="26" as="geometry" />
        </mxCell>
        <mxCell id="2Xf49_OqfoOK6BUDDD7R-40" value="+ ConsuleterBatiment()" style="text;strokeColor=none;fillColor=none;align=left;verticalAlign=top;spacingLeft=4;spacingRight=4;overflow=hidden;rotatable=0;points=[[0,0.5],[1,0.5]];portConstraint=eastwest;whiteSpace=wrap;html=1;labelBackgroundColor=none;rounded=1;" parent="2Xf49_OqfoOK6BUDDD7R-32" vertex="1">
          <mxGeometry y="216" width="140" height="26" as="geometry" />
        </mxCell>
        <mxCell id="2Xf49_OqfoOK6BUDDD7R-41" value="+ AjouterChambre()" style="text;strokeColor=none;fillColor=none;align=left;verticalAlign=top;spacingLeft=4;spacingRight=4;overflow=hidden;rotatable=0;points=[[0,0.5],[1,0.5]];portConstraint=eastwest;whiteSpace=wrap;html=1;labelBackgroundColor=none;rounded=1;" parent="2Xf49_OqfoOK6BUDDD7R-32" vertex="1">
          <mxGeometry y="242" width="140" height="26" as="geometry" />
        </mxCell>
        <mxCell id="pFJHAuG2JCkT6V4v3VvC-20" value="+ Affectation()" style="text;strokeColor=none;fillColor=none;align=left;verticalAlign=top;spacingLeft=4;spacingRight=4;overflow=hidden;rotatable=0;points=[[0,0.5],[1,0.5]];portConstraint=eastwest;whiteSpace=wrap;html=1;labelBackgroundColor=none;rounded=1;" parent="2Xf49_OqfoOK6BUDDD7R-32" vertex="1">
          <mxGeometry y="268" width="140" height="26" as="geometry" />
        </mxCell>
        <mxCell id="2Xf49_OqfoOK6BUDDD7R-42" value="Chambre" style="swimlane;fontStyle=1;align=center;verticalAlign=top;childLayout=stackLayout;horizontal=1;startSize=26;horizontalStack=0;resizeParent=1;resizeParentMax=0;resizeLast=0;collapsible=1;marginBottom=0;whiteSpace=wrap;html=1;labelBackgroundColor=none;rounded=1;" parent="WIyWlLk6GJQsqaUBKTNV-1" vertex="1">
          <mxGeometry x="990" y="190" width="190" height="190" as="geometry" />
        </mxCell>
        <mxCell id="2Xf49_OqfoOK6BUDDD7R-43" value="-CodeC" style="text;strokeColor=none;fillColor=none;align=left;verticalAlign=top;spacingLeft=4;spacingRight=4;overflow=hidden;rotatable=0;points=[[0,0.5],[1,0.5]];portConstraint=eastwest;whiteSpace=wrap;html=1;labelBackgroundColor=none;rounded=1;" parent="2Xf49_OqfoOK6BUDDD7R-42" vertex="1">
          <mxGeometry y="26" width="190" height="26" as="geometry" />
        </mxCell>
        <mxCell id="2Xf49_OqfoOK6BUDDD7R-47" value="-Niveau" style="text;strokeColor=none;fillColor=none;align=left;verticalAlign=top;spacingLeft=4;spacingRight=4;overflow=hidden;rotatable=0;points=[[0,0.5],[1,0.5]];portConstraint=eastwest;whiteSpace=wrap;html=1;labelBackgroundColor=none;rounded=1;" parent="2Xf49_OqfoOK6BUDDD7R-42" vertex="1">
          <mxGeometry y="52" width="190" height="26" as="geometry" />
        </mxCell>
        <mxCell id="2Xf49_OqfoOK6BUDDD7R-44" value="" style="line;strokeWidth=1;fillColor=none;align=left;verticalAlign=middle;spacingTop=-1;spacingLeft=3;spacingRight=3;rotatable=0;labelPosition=right;points=[];portConstraint=eastwest;labelBackgroundColor=none;rounded=1;" parent="2Xf49_OqfoOK6BUDDD7R-42" vertex="1">
          <mxGeometry y="78" width="190" height="8" as="geometry" />
        </mxCell>
        <mxCell id="2Xf49_OqfoOK6BUDDD7R-45" value="+ AjouterLit()" style="text;strokeColor=none;fillColor=none;align=left;verticalAlign=top;spacingLeft=4;spacingRight=4;overflow=hidden;rotatable=0;points=[[0,0.5],[1,0.5]];portConstraint=eastwest;whiteSpace=wrap;html=1;labelBackgroundColor=none;rounded=1;" parent="2Xf49_OqfoOK6BUDDD7R-42" vertex="1">
          <mxGeometry y="86" width="190" height="26" as="geometry" />
        </mxCell>
        <mxCell id="2Xf49_OqfoOK6BUDDD7R-216" value="+ SupprimerLit()" style="text;strokeColor=none;fillColor=none;align=left;verticalAlign=top;spacingLeft=4;spacingRight=4;overflow=hidden;rotatable=0;points=[[0,0.5],[1,0.5]];portConstraint=eastwest;whiteSpace=wrap;html=1;labelBackgroundColor=none;rounded=1;" parent="2Xf49_OqfoOK6BUDDD7R-42" vertex="1">
          <mxGeometry y="112" width="190" height="26" as="geometry" />
        </mxCell>
        <mxCell id="2Xf49_OqfoOK6BUDDD7R-217" value="+ ConsulterEtat()" style="text;strokeColor=none;fillColor=none;align=left;verticalAlign=top;spacingLeft=4;spacingRight=4;overflow=hidden;rotatable=0;points=[[0,0.5],[1,0.5]];portConstraint=eastwest;whiteSpace=wrap;html=1;labelBackgroundColor=none;rounded=1;" parent="2Xf49_OqfoOK6BUDDD7R-42" vertex="1">
          <mxGeometry y="138" width="190" height="26" as="geometry" />
        </mxCell>
        <mxCell id="pFJHAuG2JCkT6V4v3VvC-40" value="+ Payer( date , prix_chambre)" style="text;strokeColor=none;fillColor=none;align=left;verticalAlign=top;spacingLeft=4;spacingRight=4;overflow=hidden;rotatable=0;points=[[0,0.5],[1,0.5]];portConstraint=eastwest;whiteSpace=wrap;html=1;labelBackgroundColor=none;rounded=1;" parent="2Xf49_OqfoOK6BUDDD7R-42" vertex="1">
          <mxGeometry y="164" width="190" height="26" as="geometry" />
        </mxCell>
        <mxCell id="2Xf49_OqfoOK6BUDDD7R-156" value="Occupant" style="swimlane;fontStyle=1;align=center;verticalAlign=top;childLayout=stackLayout;horizontal=1;startSize=26;horizontalStack=0;resizeParent=1;resizeParentMax=0;resizeLast=0;collapsible=1;marginBottom=0;whiteSpace=wrap;html=1;labelBackgroundColor=none;rounded=1;" parent="WIyWlLk6GJQsqaUBKTNV-1" vertex="1">
          <mxGeometry x="980" y="484" width="170" height="140" as="geometry" />
        </mxCell>
        <mxCell id="2Xf49_OqfoOK6BUDDD7R-157" value="- CodeO : String" style="text;strokeColor=none;fillColor=none;align=left;verticalAlign=top;spacingLeft=4;spacingRight=4;overflow=hidden;rotatable=0;points=[[0,0.5],[1,0.5]];portConstraint=eastwest;whiteSpace=wrap;html=1;labelBackgroundColor=none;rounded=1;" parent="2Xf49_OqfoOK6BUDDD7R-156" vertex="1">
          <mxGeometry y="26" width="170" height="26" as="geometry" />
        </mxCell>
        <mxCell id="2Xf49_OqfoOK6BUDDD7R-158" value="- Date_Entree : date" style="text;strokeColor=none;fillColor=none;align=left;verticalAlign=top;spacingLeft=4;spacingRight=4;overflow=hidden;rotatable=0;points=[[0,0.5],[1,0.5]];portConstraint=eastwest;whiteSpace=wrap;html=1;labelBackgroundColor=none;rounded=1;" parent="2Xf49_OqfoOK6BUDDD7R-156" vertex="1">
          <mxGeometry y="52" width="170" height="28" as="geometry" />
        </mxCell>
        <mxCell id="2Xf49_OqfoOK6BUDDD7R-160" value="" style="line;strokeWidth=1;fillColor=none;align=left;verticalAlign=middle;spacingTop=-1;spacingLeft=3;spacingRight=3;rotatable=0;labelPosition=right;points=[];portConstraint=eastwest;labelBackgroundColor=none;rounded=1;" parent="2Xf49_OqfoOK6BUDDD7R-156" vertex="1">
          <mxGeometry y="80" width="170" height="8" as="geometry" />
        </mxCell>
        <mxCell id="2Xf49_OqfoOK6BUDDD7R-161" value="- Get_Code() : String" style="text;strokeColor=none;fillColor=none;align=left;verticalAlign=top;spacingLeft=4;spacingRight=4;overflow=hidden;rotatable=0;points=[[0,0.5],[1,0.5]];portConstraint=eastwest;whiteSpace=wrap;html=1;labelBackgroundColor=none;rounded=1;" parent="2Xf49_OqfoOK6BUDDD7R-156" vertex="1">
          <mxGeometry y="88" width="170" height="26" as="geometry" />
        </mxCell>
        <mxCell id="2Xf49_OqfoOK6BUDDD7R-162" value="+ Get_Date_Entree() :date" style="text;strokeColor=none;fillColor=none;align=left;verticalAlign=top;spacingLeft=4;spacingRight=4;overflow=hidden;rotatable=0;points=[[0,0.5],[1,0.5]];portConstraint=eastwest;whiteSpace=wrap;html=1;labelBackgroundColor=none;rounded=1;" parent="2Xf49_OqfoOK6BUDDD7R-156" vertex="1">
          <mxGeometry y="114" width="170" height="26" as="geometry" />
        </mxCell>
        <mxCell id="pFJHAuG2JCkT6V4v3VvC-3" value="Etudiant" style="swimlane;fontStyle=1;align=center;verticalAlign=top;childLayout=stackLayout;horizontal=1;startSize=26;horizontalStack=0;resizeParent=1;resizeParentMax=0;resizeLast=0;collapsible=1;marginBottom=0;whiteSpace=wrap;html=1;labelBackgroundColor=none;rounded=1;" parent="WIyWlLk6GJQsqaUBKTNV-1" vertex="1">
          <mxGeometry x="1088" y="780" width="192" height="398" as="geometry" />
        </mxCell>
        <mxCell id="pFJHAuG2JCkT6V4v3VvC-4" value="- Matricule : String" style="text;strokeColor=none;fillColor=none;align=left;verticalAlign=top;spacingLeft=4;spacingRight=4;overflow=hidden;rotatable=0;points=[[0,0.5],[1,0.5]];portConstraint=eastwest;whiteSpace=wrap;html=1;labelBackgroundColor=none;rounded=1;" parent="pFJHAuG2JCkT6V4v3VvC-3" vertex="1">
          <mxGeometry y="26" width="192" height="26" as="geometry" />
        </mxCell>
        <mxCell id="pFJHAuG2JCkT6V4v3VvC-7" value="- Sexe : String" style="text;strokeColor=none;fillColor=none;align=left;verticalAlign=top;spacingLeft=4;spacingRight=4;overflow=hidden;rotatable=0;points=[[0,0.5],[1,0.5]];portConstraint=eastwest;whiteSpace=wrap;html=1;labelBackgroundColor=none;rounded=1;" parent="pFJHAuG2JCkT6V4v3VvC-3" vertex="1">
          <mxGeometry y="52" width="192" height="26" as="geometry" />
        </mxCell>
        <mxCell id="pFJHAuG2JCkT6V4v3VvC-8" value="- Niveaux : Int" style="text;strokeColor=none;fillColor=none;align=left;verticalAlign=top;spacingLeft=4;spacingRight=4;overflow=hidden;rotatable=0;points=[[0,0.5],[1,0.5]];portConstraint=eastwest;whiteSpace=wrap;html=1;labelBackgroundColor=none;rounded=1;" parent="pFJHAuG2JCkT6V4v3VvC-3" vertex="1">
          <mxGeometry y="78" width="192" height="26" as="geometry" />
        </mxCell>
        <mxCell id="pFJHAuG2JCkT6V4v3VvC-9" value="- Date_Naissance : date" style="text;strokeColor=none;fillColor=none;align=left;verticalAlign=top;spacingLeft=4;spacingRight=4;overflow=hidden;rotatable=0;points=[[0,0.5],[1,0.5]];portConstraint=eastwest;whiteSpace=wrap;html=1;labelBackgroundColor=none;rounded=1;" parent="pFJHAuG2JCkT6V4v3VvC-3" vertex="1">
          <mxGeometry y="104" width="192" height="26" as="geometry" />
        </mxCell>
        <mxCell id="pFJHAuG2JCkT6V4v3VvC-10" value="- Handicap : String" style="text;strokeColor=none;fillColor=none;align=left;verticalAlign=top;spacingLeft=4;spacingRight=4;overflow=hidden;rotatable=0;points=[[0,0.5],[1,0.5]];portConstraint=eastwest;whiteSpace=wrap;html=1;labelBackgroundColor=none;rounded=1;" parent="pFJHAuG2JCkT6V4v3VvC-3" vertex="1">
          <mxGeometry y="130" width="192" height="26" as="geometry" />
        </mxCell>
        <mxCell id="pFJHAuG2JCkT6V4v3VvC-11" value="- Antécédant : String" style="text;strokeColor=none;fillColor=none;align=left;verticalAlign=top;spacingLeft=4;spacingRight=4;overflow=hidden;rotatable=0;points=[[0,0.5],[1,0.5]];portConstraint=eastwest;whiteSpace=wrap;html=1;labelBackgroundColor=none;rounded=1;" parent="pFJHAuG2JCkT6V4v3VvC-3" vertex="1">
          <mxGeometry y="156" width="192" height="26" as="geometry" />
        </mxCell>
        <mxCell id="pFJHAuG2JCkT6V4v3VvC-12" value="- Numero_Recu : Int" style="text;strokeColor=none;fillColor=none;align=left;verticalAlign=top;spacingLeft=4;spacingRight=4;overflow=hidden;rotatable=0;points=[[0,0.5],[1,0.5]];portConstraint=eastwest;whiteSpace=wrap;html=1;labelBackgroundColor=none;rounded=1;" parent="pFJHAuG2JCkT6V4v3VvC-3" vertex="1">
          <mxGeometry y="182" width="192" height="26" as="geometry" />
        </mxCell>
        <mxCell id="pFJHAuG2JCkT6V4v3VvC-5" value="" style="line;strokeWidth=1;fillColor=none;align=left;verticalAlign=middle;spacingTop=-1;spacingLeft=3;spacingRight=3;rotatable=0;labelPosition=right;points=[];portConstraint=eastwest;labelBackgroundColor=none;rounded=1;" parent="pFJHAuG2JCkT6V4v3VvC-3" vertex="1">
          <mxGeometry y="208" width="192" height="8" as="geometry" />
        </mxCell>
        <mxCell id="pFJHAuG2JCkT6V4v3VvC-6" value="+ Get_Matricule() : Int" style="text;strokeColor=none;fillColor=none;align=left;verticalAlign=top;spacingLeft=4;spacingRight=4;overflow=hidden;rotatable=0;points=[[0,0.5],[1,0.5]];portConstraint=eastwest;whiteSpace=wrap;html=1;labelBackgroundColor=none;rounded=1;" parent="pFJHAuG2JCkT6V4v3VvC-3" vertex="1">
          <mxGeometry y="216" width="192" height="26" as="geometry" />
        </mxCell>
        <mxCell id="pFJHAuG2JCkT6V4v3VvC-14" value="+ Get_Sexe : String" style="text;strokeColor=none;fillColor=none;align=left;verticalAlign=top;spacingLeft=4;spacingRight=4;overflow=hidden;rotatable=0;points=[[0,0.5],[1,0.5]];portConstraint=eastwest;whiteSpace=wrap;html=1;labelBackgroundColor=none;rounded=1;" parent="pFJHAuG2JCkT6V4v3VvC-3" vertex="1">
          <mxGeometry y="242" width="192" height="26" as="geometry" />
        </mxCell>
        <mxCell id="pFJHAuG2JCkT6V4v3VvC-15" value="&amp;nbsp;+ Get_Niveau () : String" style="text;strokeColor=none;fillColor=none;align=left;verticalAlign=top;spacingLeft=4;spacingRight=4;overflow=hidden;rotatable=0;points=[[0,0.5],[1,0.5]];portConstraint=eastwest;whiteSpace=wrap;html=1;labelBackgroundColor=none;rounded=1;" parent="pFJHAuG2JCkT6V4v3VvC-3" vertex="1">
          <mxGeometry y="268" width="192" height="26" as="geometry" />
        </mxCell>
        <mxCell id="pFJHAuG2JCkT6V4v3VvC-16" value="+ Get_Date_Naissance() : String" style="text;strokeColor=none;fillColor=none;align=left;verticalAlign=top;spacingLeft=4;spacingRight=4;overflow=hidden;rotatable=0;points=[[0,0.5],[1,0.5]];portConstraint=eastwest;whiteSpace=wrap;html=1;labelBackgroundColor=none;rounded=1;" parent="pFJHAuG2JCkT6V4v3VvC-3" vertex="1">
          <mxGeometry y="294" width="192" height="26" as="geometry" />
        </mxCell>
        <mxCell id="pFJHAuG2JCkT6V4v3VvC-17" value="+ Get_Handicap ()&amp;nbsp; : String" style="text;strokeColor=none;fillColor=none;align=left;verticalAlign=top;spacingLeft=4;spacingRight=4;overflow=hidden;rotatable=0;points=[[0,0.5],[1,0.5]];portConstraint=eastwest;whiteSpace=wrap;html=1;labelBackgroundColor=none;rounded=1;" parent="pFJHAuG2JCkT6V4v3VvC-3" vertex="1">
          <mxGeometry y="320" width="192" height="26" as="geometry" />
        </mxCell>
        <mxCell id="pFJHAuG2JCkT6V4v3VvC-18" value="- Get_Antecedant() :String&amp;nbsp;" style="text;strokeColor=none;fillColor=none;align=left;verticalAlign=top;spacingLeft=4;spacingRight=4;overflow=hidden;rotatable=0;points=[[0,0.5],[1,0.5]];portConstraint=eastwest;whiteSpace=wrap;html=1;labelBackgroundColor=none;rounded=1;" parent="pFJHAuG2JCkT6V4v3VvC-3" vertex="1">
          <mxGeometry y="346" width="192" height="26" as="geometry" />
        </mxCell>
        <mxCell id="pFJHAuG2JCkT6V4v3VvC-19" value="- Get_NumeroRecu() : Int" style="text;strokeColor=none;fillColor=none;align=left;verticalAlign=top;spacingLeft=4;spacingRight=4;overflow=hidden;rotatable=0;points=[[0,0.5],[1,0.5]];portConstraint=eastwest;whiteSpace=wrap;html=1;labelBackgroundColor=none;rounded=1;" parent="pFJHAuG2JCkT6V4v3VvC-3" vertex="1">
          <mxGeometry y="372" width="192" height="26" as="geometry" />
        </mxCell>
        <mxCell id="pFJHAuG2JCkT6V4v3VvC-27" value="2,*" style="endArrow=none;html=1;endSize=14;startArrow=diamondThin;startSize=14;startFill=0;align=left;verticalAlign=bottom;rounded=1;exitX=0.991;exitY=0.942;exitDx=0;exitDy=0;entryX=0;entryY=0.5;entryDx=0;entryDy=0;exitPerimeter=0;endFill=0;labelBackgroundColor=none;fontColor=default;" parent="WIyWlLk6GJQsqaUBKTNV-1" source="2Xf49_OqfoOK6BUDDD7R-39" target="2Xf49_OqfoOK6BUDDD7R-45" edge="1">
          <mxGeometry x="0.6625" relative="1" as="geometry">
            <mxPoint x="790" y="330" as="sourcePoint" />
            <mxPoint x="950" y="330" as="targetPoint" />
            <mxPoint as="offset" />
          </mxGeometry>
        </mxCell>
        <mxCell id="pFJHAuG2JCkT6V4v3VvC-28" value="Diricteur Cite" style="swimlane;fontStyle=1;align=center;verticalAlign=top;childLayout=stackLayout;horizontal=1;startSize=26;horizontalStack=0;resizeParent=1;resizeParentMax=0;resizeLast=0;collapsible=1;marginBottom=0;whiteSpace=wrap;html=1;labelBackgroundColor=none;rounded=1;" parent="WIyWlLk6GJQsqaUBKTNV-1" vertex="1">
          <mxGeometry x="230" y="460" width="160" height="78" as="geometry" />
        </mxCell>
        <mxCell id="pFJHAuG2JCkT6V4v3VvC-29" value="- Nom : String" style="text;strokeColor=none;fillColor=none;align=left;verticalAlign=top;spacingLeft=4;spacingRight=4;overflow=hidden;rotatable=0;points=[[0,0.5],[1,0.5]];portConstraint=eastwest;whiteSpace=wrap;html=1;labelBackgroundColor=none;rounded=1;" parent="pFJHAuG2JCkT6V4v3VvC-28" vertex="1">
          <mxGeometry y="26" width="160" height="26" as="geometry" />
        </mxCell>
        <mxCell id="pFJHAuG2JCkT6V4v3VvC-32" value="- Prenom : String" style="text;strokeColor=none;fillColor=none;align=left;verticalAlign=top;spacingLeft=4;spacingRight=4;overflow=hidden;rotatable=0;points=[[0,0.5],[1,0.5]];portConstraint=eastwest;whiteSpace=wrap;html=1;labelBackgroundColor=none;rounded=1;" parent="pFJHAuG2JCkT6V4v3VvC-28" vertex="1">
          <mxGeometry y="52" width="160" height="26" as="geometry" />
        </mxCell>
        <mxCell id="pFJHAuG2JCkT6V4v3VvC-33" value="Composer" style="text;html=1;strokeColor=none;fillColor=none;align=center;verticalAlign=middle;whiteSpace=wrap;rounded=1;labelBackgroundColor=none;" parent="WIyWlLk6GJQsqaUBKTNV-1" vertex="1">
          <mxGeometry x="840" y="250" width="60" height="30" as="geometry" />
        </mxCell>
        <mxCell id="pFJHAuG2JCkT6V4v3VvC-34" value="1,*" style="endArrow=none;html=1;endSize=12;startArrow=diamondThin;startSize=14;startFill=0;align=left;verticalAlign=bottom;rounded=1;endFill=0;entryX=0.559;entryY=-0.023;entryDx=0;entryDy=0;entryPerimeter=0;strokeWidth=1;jumpSize=7;shadow=0;exitX=0.448;exitY=1;exitDx=0;exitDy=0;exitPerimeter=0;labelBackgroundColor=none;fontColor=default;" parent="WIyWlLk6GJQsqaUBKTNV-1" source="pFJHAuG2JCkT6V4v3VvC-40" target="2Xf49_OqfoOK6BUDDD7R-156" edge="1">
          <mxGeometry x="0.7367" y="14" relative="1" as="geometry">
            <mxPoint x="1070" y="390" as="sourcePoint" />
            <mxPoint x="1070" y="460" as="targetPoint" />
            <mxPoint as="offset" />
          </mxGeometry>
        </mxCell>
        <mxCell id="pFJHAuG2JCkT6V4v3VvC-36" style="rounded=1;orthogonalLoop=1;jettySize=auto;html=1;entryX=0.092;entryY=0.968;entryDx=0;entryDy=0;entryPerimeter=0;edgeStyle=orthogonalEdgeStyle;endArrow=block;endFill=0;endSize=14;labelBackgroundColor=none;fontColor=default;" parent="WIyWlLk6GJQsqaUBKTNV-1" source="pFJHAuG2JCkT6V4v3VvC-12" target="2Xf49_OqfoOK6BUDDD7R-162" edge="1">
          <mxGeometry relative="1" as="geometry" />
        </mxCell>
        <mxCell id="pFJHAuG2JCkT6V4v3VvC-38" style="edgeStyle=orthogonalEdgeStyle;rounded=1;orthogonalLoop=1;jettySize=auto;html=1;labelBackgroundColor=none;fontColor=default;entryX=-0.007;entryY=0.034;entryDx=0;entryDy=0;entryPerimeter=0;" parent="WIyWlLk6GJQsqaUBKTNV-1" source="pFJHAuG2JCkT6V4v3VvC-28" target="2Xf49_OqfoOK6BUDDD7R-32" edge="1">
          <mxGeometry relative="1" as="geometry">
            <mxPoint x="610" y="348" as="targetPoint" />
          </mxGeometry>
        </mxCell>
        <mxCell id="pFJHAuG2JCkT6V4v3VvC-42" value="Gerer" style="text;html=1;strokeColor=none;fillColor=none;align=center;verticalAlign=middle;whiteSpace=wrap;rounded=1;labelBackgroundColor=none;" parent="WIyWlLk6GJQsqaUBKTNV-1" vertex="1">
          <mxGeometry x="380" y="310" width="60" height="30" as="geometry" />
        </mxCell>
        <mxCell id="pFJHAuG2JCkT6V4v3VvC-43" value="1&amp;nbsp;" style="text;html=1;strokeColor=none;fillColor=none;align=center;verticalAlign=middle;whiteSpace=wrap;rounded=1;labelBackgroundColor=none;" parent="WIyWlLk6GJQsqaUBKTNV-1" vertex="1">
          <mxGeometry x="300" y="430" width="60" height="30" as="geometry" />
        </mxCell>
        <mxCell id="pFJHAuG2JCkT6V4v3VvC-44" value="1" style="text;html=1;strokeColor=none;fillColor=none;align=center;verticalAlign=middle;whiteSpace=wrap;rounded=1;labelBackgroundColor=none;" parent="WIyWlLk6GJQsqaUBKTNV-1" vertex="1">
          <mxGeometry x="550" y="200" width="60" height="30" as="geometry" />
        </mxCell>
      </root>
    </mxGraphModel>
  </diagram>
</mxfile>
